<svg width="23" height="23" viewBox="0 0 23 23" fill="none" xmlns="http://www.w3.org/2000/svg">
<path d="M9.5625 8.03125V6.28125C9.5625 4.84298 9.5625 4.12384 9.16525 3.63981C9.09255 3.55121 9.01129 3.46995 8.92269 3.39723C8.43866 3 7.71952 3 6.28125 3C4.84298 3 4.12384 3 3.63981 3.39723C3.55121 3.46995 3.46995 3.55121 3.39723 3.63981C3 4.12384 3 4.84298 3 6.28125V8.03125C3 9.46949 3 10.1886 3.39723 10.6727C3.46995 10.7613 3.55121 10.8425 3.63981 10.9152C4.12384 11.3125 4.84298 11.3125 6.28125 11.3125C7.71952 11.3125 8.43866 11.3125 8.92269 10.9152C9.01129 10.8425 9.09255 10.7613 9.16525 10.6727C9.5625 10.1886 9.5625 9.46949 9.5625 8.03125Z" stroke="white" stroke-width="1.5" stroke-linejoin="round"/>
<path d="M16.7188 3H14.9688C14.3582 3 14.0529 3 13.8045 3.07535C13.2452 3.24502 12.8075 3.6827 12.6378 4.242C12.5625 4.49041 12.5625 4.79569 12.5625 5.40625C12.5625 6.01681 12.5625 6.32209 12.6378 6.5705C12.8075 7.1298 13.2452 7.56748 13.8045 7.73715C14.0529 7.8125 14.3582 7.8125 14.9688 7.8125H16.7188C17.3293 7.8125 17.6346 7.8125 17.883 7.73715C18.4423 7.56748 18.88 7.1298 19.0497 6.5705C19.125 6.32209 19.125 6.01681 19.125 5.40625C19.125 4.79569 19.125 4.49041 19.0497 4.242C18.88 3.6827 18.4423 3.24502 17.883 3.07535C17.6346 3 17.3293 3 16.7188 3Z" stroke="white" stroke-width="1.5" stroke-linejoin="round"/>
<path d="M7.15625 11.3125H5.40625C4.79569 11.3125 4.49041 11.3125 4.242 11.3878C3.6827 11.5575 3.24502 11.9952 3.07535 12.5545C3 12.8029 3 13.1082 3 13.7188C3 14.3293 3 14.6346 3.07535 14.883C3.24502 15.4423 3.6827 15.88 4.242 16.0497C4.49041 16.125 4.79569 16.125 5.40625 16.125H7.15625C7.76681 16.125 8.07209 16.125 8.3205 16.0497C8.8798 15.88 9.3175 15.4423 9.48716 14.883C9.5625 14.6346 9.5625 14.3293 9.5625 13.7188C9.5625 13.1082 9.5625 12.8029 9.48716 12.5545C9.3175 11.9952 8.8798 11.5575 8.3205 11.3878C8.07209 11.3125 7.76681 11.3125 7.15625 11.3125Z" stroke="white" stroke-width="1.5" stroke-linejoin="round"/>
<path d="M19.125 16.3438V14.5938C19.125 13.1555 19.125 12.4364 18.7277 11.9523C18.655 11.8637 18.5738 11.7825 18.4852 11.7098C18.0012 11.3125 17.282 11.3125 15.8438 11.3125C14.4055 11.3125 13.6864 11.3125 13.2023 11.7098C13.1137 11.7825 13.0325 11.8637 12.9598 11.9523C12.5625 12.4364 12.5625 13.1555 12.5625 14.5938V16.3438C12.5625 17.782 12.5625 18.5012 12.9598 18.9852C13.0325 19.0738 13.1137 19.155 13.2023 19.2277C13.6864 19.625 14.4055 19.625 15.8438 19.625C17.282 19.625 18.0012 19.625 18.4852 19.2277C18.5738 19.155 18.655 19.0738 18.7277 18.9852C19.125 18.5012 19.125 17.782 19.125 16.3438Z" stroke="white" stroke-width="1.5" stroke-linejoin="round"/>
</svg>
